<svg width="20" height="20" viewBox="0 0 20 20" fill="none" xmlns="http://www.w3.org/2000/svg">
<path d="M7.50008 18.3333H12.5001C16.6667 18.3333 18.3334 16.6667 18.3334 12.5V7.50001C18.3334 3.33334 16.6667 1.66667 12.5001 1.66667H7.50008C3.33341 1.66667 1.66675 3.33334 1.66675 7.50001V12.5C1.66675 16.6667 3.33341 18.3333 7.50008 18.3333Z" stroke="white" stroke-opacity="0.7" stroke-width="1.5" stroke-linecap="round" stroke-linejoin="round"/>
<path d="M9.99992 12.9167C11.6107 12.9167 12.9166 11.6108 12.9166 9.99999C12.9166 8.38916 11.6107 7.08333 9.99992 7.08333C8.38909 7.08333 7.08325 8.38916 7.08325 9.99999C7.08325 11.6108 8.38909 12.9167 9.99992 12.9167Z" stroke="white" stroke-opacity="0.7" stroke-width="1.5" stroke-linecap="round" stroke-linejoin="round"/>
<path d="M14.6968 5.83334H14.7065" stroke="white" stroke-opacity="0.7" stroke-width="2" stroke-linecap="round" stroke-linejoin="round"/>
</svg>
