<svg width="117" height="48" viewBox="0 0 117 48" fill="none" xmlns="http://www.w3.org/2000/svg">
<path d="M22 0L22 44" stroke="white"/>
<path d="M44 22L-1.3113e-06 22" stroke="white"/>
<path d="M37.5564 37.5564L6.4437 6.44365" stroke="white"/>
<path d="M6.4436 37.5564L37.5563 6.44365" stroke="white"/>
<circle cx="22" cy="22" r="5" fill="white"/>
<path d="M55.4347 19V4.45455H60.8892C62.0066 4.45455 62.9441 4.66288 63.7017 5.07955C64.464 5.49621 65.0393 6.06913 65.4276 6.7983C65.8205 7.52273 66.017 8.34659 66.017 9.26989C66.017 10.2027 65.8205 11.0312 65.4276 11.7557C65.0346 12.4801 64.4545 13.0507 63.6875 13.4673C62.9205 13.8793 61.9759 14.0852 60.8537 14.0852H57.2386V11.919H60.4986C61.152 11.919 61.687 11.8054 62.1037 11.5781C62.5204 11.3509 62.8281 11.0384 63.027 10.6406C63.2306 10.2429 63.3324 9.78598 63.3324 9.26989C63.3324 8.75379 63.2306 8.29924 63.027 7.90625C62.8281 7.51326 62.518 7.20786 62.0966 6.99006C61.6799 6.76752 61.1425 6.65625 60.4844 6.65625H58.0696V19H55.4347ZM71.136 19.2202C70.4447 19.2202 69.8221 19.0971 69.2681 18.8509C68.7189 18.5999 68.2833 18.2306 67.9613 17.7429C67.6441 17.2552 67.4854 16.6539 67.4854 15.9389C67.4854 15.3234 67.5991 14.8144 67.8263 14.4119C68.0536 14.0095 68.3638 13.6875 68.7567 13.446C69.1497 13.2045 69.5924 13.0223 70.0849 12.8991C70.582 12.7713 71.0958 12.679 71.6261 12.6222C72.2653 12.5559 72.7837 12.4967 73.1815 12.4446C73.5792 12.3878 73.868 12.3026 74.0479 12.1889C74.2326 12.0705 74.3249 11.8883 74.3249 11.642V11.5994C74.3249 11.0644 74.1663 10.6501 73.8491 10.3565C73.5318 10.063 73.0749 9.91619 72.4783 9.91619C71.8486 9.91619 71.3491 10.0535 70.9798 10.3281C70.6152 10.6027 70.369 10.9271 70.2411 11.3011L67.8406 10.9602C68.0299 10.2973 68.3424 9.74337 68.7781 9.2983C69.2137 8.84848 69.7463 8.51231 70.3761 8.28977C71.0058 8.0625 71.7018 7.94886 72.4641 7.94886C72.9897 7.94886 73.5129 8.01042 74.0337 8.13352C74.5546 8.25663 75.0304 8.46023 75.4613 8.74432C75.8922 9.02367 76.2378 9.40483 76.4982 9.88778C76.7634 10.3707 76.896 10.9744 76.896 11.6989V19H74.4244V17.5014H74.3391C74.1829 17.8045 73.9627 18.0885 73.6786 18.3537C73.3993 18.6141 73.0465 18.8248 72.6204 18.9858C72.199 19.142 71.7042 19.2202 71.136 19.2202ZM71.8036 17.331C72.3197 17.331 72.7672 17.2292 73.146 17.0256C73.5247 16.8172 73.8159 16.5426 74.0195 16.2017C74.2279 15.8608 74.332 15.4891 74.332 15.0866V13.8011C74.2515 13.8674 74.1142 13.929 73.9201 13.9858C73.7307 14.0426 73.5176 14.0923 73.2809 14.1349C73.0442 14.1776 72.8098 14.2154 72.5778 14.2486C72.3458 14.2817 72.1445 14.3101 71.9741 14.3338C71.5906 14.3859 71.2473 14.4711 70.9442 14.5895C70.6412 14.7079 70.4021 14.8736 70.2269 15.0866C70.0517 15.295 69.9641 15.5649 69.9641 15.8963C69.9641 16.3698 70.137 16.7273 70.4826 16.9688C70.8282 17.2102 71.2686 17.331 71.8036 17.331ZM82.0522 4.45455V19H79.4812V4.45455H82.0522Z" fill="white"/>
<path d="M55.4347 43V28.4545H61.0028C62.054 28.4545 62.9276 28.6203 63.6236 28.9517C64.3243 29.2784 64.8475 29.7259 65.1932 30.294C65.5436 30.8622 65.7188 31.5062 65.7188 32.2259C65.7188 32.8177 65.6051 33.3243 65.3778 33.7457C65.1506 34.1624 64.8452 34.5009 64.4616 34.7614C64.0781 35.0218 63.6496 35.2088 63.1761 35.3224V35.4645C63.6922 35.4929 64.187 35.6515 64.6605 35.9403C65.1387 36.2244 65.5294 36.6269 65.8324 37.1477C66.1354 37.6686 66.2869 38.2983 66.2869 39.0369C66.2869 39.7898 66.1046 40.4669 65.7401 41.0682C65.3755 41.6648 64.8262 42.1359 64.0923 42.4815C63.3584 42.8272 62.4351 43 61.3224 43H55.4347ZM58.0696 40.7983H60.9034C61.8598 40.7983 62.5488 40.616 62.9702 40.2514C63.3963 39.8821 63.6094 39.4086 63.6094 38.831C63.6094 38.4001 63.5028 38.0118 63.2898 37.6662C63.0767 37.3158 62.7737 37.0412 62.3807 36.8423C61.9877 36.6387 61.5189 36.5369 60.9744 36.5369H58.0696V40.7983ZM58.0696 34.6406H60.6761C61.1307 34.6406 61.5402 34.5578 61.9048 34.392C62.2694 34.2216 62.5559 33.9825 62.7642 33.6747C62.9773 33.3622 63.0838 32.9929 63.0838 32.5668C63.0838 32.0033 62.8849 31.5393 62.4872 31.1747C62.0942 30.8101 61.5095 30.6278 60.733 30.6278H58.0696V34.6406ZM75.4187 38.4119V32.0909H77.9897V43H75.4968V41.0611H75.3832C75.137 41.6719 74.7321 42.1714 74.1687 42.5597C73.61 42.9479 72.921 43.142 72.1019 43.142C71.387 43.142 70.7549 42.9834 70.2056 42.6662C69.6611 42.3442 69.235 41.8778 68.9272 41.267C68.6194 40.6515 68.4656 39.9081 68.4656 39.0369V32.0909H71.0366V38.6392C71.0366 39.3305 71.226 39.8797 71.6048 40.2869C71.9835 40.6941 72.4807 40.8977 73.0962 40.8977C73.475 40.8977 73.842 40.8054 74.1971 40.6207C74.5522 40.4361 74.8434 40.1615 75.0707 39.7969C75.3027 39.4276 75.4187 38.9659 75.4187 38.4119ZM85.3778 47.3182C84.4545 47.3182 83.6615 47.1927 82.9986 46.9418C82.3357 46.6955 81.803 46.3641 81.4006 45.9474C80.9981 45.5308 80.7188 45.0691 80.5625 44.5625L82.8778 44.0014C82.982 44.2145 83.1335 44.4252 83.3324 44.6335C83.5313 44.8466 83.7988 45.0218 84.1349 45.1591C84.4759 45.3011 84.9044 45.3722 85.4205 45.3722C86.1496 45.3722 86.7533 45.1946 87.2315 44.8395C87.7098 44.4891 87.9489 43.9115 87.9489 43.1065V41.0398H87.821C87.6884 41.3049 87.4943 41.5772 87.2386 41.8565C86.9877 42.1359 86.6539 42.3703 86.2372 42.5597C85.8253 42.7491 85.3068 42.8438 84.6818 42.8438C83.8438 42.8438 83.0838 42.6473 82.402 42.2543C81.7249 41.8565 81.1851 41.2647 80.7827 40.4787C80.3849 39.688 80.1861 38.6984 80.1861 37.5099C80.1861 36.312 80.3849 35.3011 80.7827 34.4773C81.1851 33.6487 81.7273 33.0213 82.4091 32.5952C83.0909 32.1643 83.8509 31.9489 84.6889 31.9489C85.3281 31.9489 85.8537 32.0578 86.2656 32.2756C86.6823 32.4886 87.0137 32.7467 87.2599 33.0497C87.5062 33.348 87.6932 33.6297 87.821 33.8949H87.9631V32.0909H90.4986V43.1776C90.4986 44.1103 90.276 44.8821 89.831 45.4929C89.3859 46.1037 88.7775 46.5606 88.0057 46.8636C87.2339 47.1667 86.358 47.3182 85.3778 47.3182ZM85.3991 40.8267C85.9437 40.8267 86.4077 40.6941 86.7912 40.429C87.1747 40.1638 87.4659 39.7827 87.6648 39.2855C87.8636 38.7884 87.9631 38.1918 87.9631 37.4957C87.9631 36.8092 87.8636 36.2079 87.6648 35.6918C87.4706 35.1757 87.1818 34.7756 86.7983 34.4915C86.4195 34.2027 85.9531 34.0582 85.3991 34.0582C84.8262 34.0582 84.348 34.2074 83.9645 34.5057C83.581 34.804 83.2921 35.2135 83.098 35.7344C82.9039 36.2505 82.8068 36.8376 82.8068 37.4957C82.8068 38.1634 82.9039 38.7481 83.098 39.25C83.2969 39.7472 83.5881 40.1354 83.9716 40.4148C84.3598 40.6894 84.8357 40.8267 85.3991 40.8267ZM97.8778 47.3182C96.9545 47.3182 96.1615 47.1927 95.4986 46.9418C94.8357 46.6955 94.303 46.3641 93.9006 45.9474C93.4981 45.5308 93.2188 45.0691 93.0625 44.5625L95.3778 44.0014C95.482 44.2145 95.6335 44.4252 95.8324 44.6335C96.0313 44.8466 96.2988 45.0218 96.6349 45.1591C96.9759 45.3011 97.4044 45.3722 97.9205 45.3722C98.6496 45.3722 99.2533 45.1946 99.7315 44.8395C100.21 44.4891 100.449 43.9115 100.449 43.1065V41.0398H100.321C100.188 41.3049 99.9943 41.5772 99.7386 41.8565C99.4877 42.1359 99.1539 42.3703 98.7372 42.5597C98.3253 42.7491 97.8068 42.8438 97.1818 42.8438C96.3438 42.8438 95.5838 42.6473 94.902 42.2543C94.2249 41.8565 93.6851 41.2647 93.2827 40.4787C92.8849 39.688 92.6861 38.6984 92.6861 37.5099C92.6861 36.312 92.8849 35.3011 93.2827 34.4773C93.6851 33.6487 94.2273 33.0213 94.9091 32.5952C95.5909 32.1643 96.3509 31.9489 97.1889 31.9489C97.8281 31.9489 98.3537 32.0578 98.7656 32.2756C99.1823 32.4886 99.5137 32.7467 99.7599 33.0497C100.006 33.348 100.193 33.6297 100.321 33.8949H100.463V32.0909H102.999V43.1776C102.999 44.1103 102.776 44.8821 102.331 45.4929C101.886 46.1037 101.277 46.5606 100.506 46.8636C99.7339 47.1667 98.858 47.3182 97.8778 47.3182ZM97.8991 40.8267C98.4437 40.8267 98.9077 40.6941 99.2912 40.429C99.6747 40.1638 99.9659 39.7827 100.165 39.2855C100.364 38.7884 100.463 38.1918 100.463 37.4957C100.463 36.8092 100.364 36.2079 100.165 35.6918C99.9706 35.1757 99.6818 34.7756 99.2983 34.4915C98.9195 34.2027 98.4531 34.0582 97.8991 34.0582C97.3262 34.0582 96.848 34.2074 96.4645 34.5057C96.081 34.804 95.7921 35.2135 95.598 35.7344C95.4039 36.2505 95.3068 36.8376 95.3068 37.4957C95.3068 38.1634 95.4039 38.7481 95.598 39.25C95.7969 39.7472 96.0881 40.1354 96.4716 40.4148C96.8598 40.6894 97.3357 40.8267 97.8991 40.8267ZM110.463 43.2131C109.369 43.2131 108.425 42.9858 107.629 42.5312C106.839 42.072 106.23 41.4233 105.804 40.5852C105.378 39.7424 105.165 38.7505 105.165 37.6094C105.165 36.4872 105.378 35.5024 105.804 34.6548C106.235 33.8026 106.836 33.1397 107.608 32.6662C108.38 32.188 109.286 31.9489 110.328 31.9489C111 31.9489 111.635 32.0578 112.232 32.2756C112.833 32.4886 113.363 32.8201 113.822 33.2699C114.286 33.7197 114.651 34.2926 114.916 34.9886C115.181 35.6799 115.314 36.5038 115.314 37.4602V38.2486H106.372V36.5156H112.849C112.845 36.0232 112.738 35.5852 112.53 35.2017C112.321 34.8134 112.03 34.508 111.656 34.2855C111.287 34.063 110.856 33.9517 110.364 33.9517C109.838 33.9517 109.376 34.0795 108.979 34.3352C108.581 34.5862 108.271 34.9176 108.048 35.3295C107.83 35.7367 107.719 36.1842 107.714 36.6719V38.1847C107.714 38.8191 107.83 39.3636 108.062 39.8182C108.295 40.268 108.619 40.6136 109.036 40.8551C109.452 41.0919 109.94 41.2102 110.499 41.2102C110.873 41.2102 111.211 41.1581 111.514 41.054C111.817 40.9451 112.08 40.7865 112.303 40.5781C112.525 40.3698 112.693 40.1117 112.807 39.804L115.207 40.0739C115.056 40.7083 114.767 41.2623 114.341 41.7358C113.92 42.2045 113.38 42.5691 112.722 42.8295C112.063 43.0852 111.311 43.2131 110.463 43.2131Z" fill="white"/>
</svg>
